<svg xmlns="http://www.w3.org/2000/svg" width="1920" height="1080" viewBox="0 0 1920 1080">
  <image href="/private/tmp/ai-shop-report-1920x1080.png" width="1920" height="1080"/>
  <g fill="none" stroke="#ff4d6d" stroke-width="7" opacity=".95">
    <rect x="306" y="130" width="1586" height="205" rx="18"/>
    <rect x="306" y="354" width="1586" height="146" rx="18"/>
    <rect x="306" y="517" width="879" height="424" rx="18"/>
    <rect x="1202" y="517" width="690" height="424" rx="18"/>
    <rect x="306" y="958" width="879" height="104" rx="18"/>
    <rect x="1202" y="958" width="690" height="104" rx="18"/>
  </g>
  <g font-family="Arial, sans-serif" font-size="25" font-weight="700">
    <rect x="330" y="145" width="520" height="44" rx="10" fill="#ff4d6d"/>
    <text x="350" y="175" fill="white">Hero: H2, subtitle, gauge, button</text>
    <rect x="330" y="368" width="470" height="44" rx="10" fill="#ff4d6d"/>
    <text x="350" y="398" fill="white">Metric cards: number, label, note</text>
    <rect x="330" y="532" width="430" height="44" rx="10" fill="#ff4d6d"/>
    <text x="350" y="562" fill="white">Workflow: title and status text</text>
    <rect x="1226" y="532" width="365" height="44" rx="10" fill="#ff4d6d"/>
    <text x="1246" y="562" fill="white">AI Summary: report text</text>
    <rect x="330" y="972" width="380" height="44" rx="10" fill="#ff4d6d"/>
    <text x="350" y="1002" fill="white">Risk Watch: title, note, badge</text>
    <rect x="1226" y="972" width="400" height="44" rx="10" fill="#ff4d6d"/>
    <text x="1246" y="1002" fill="white">Next Actions: title, detail, tag</text>
  </g>
</svg>
